	<?xml version="1.0" encoding="utf-8"?>
<!-- Generator: Adobe Illustrator 21.0.0, SVG Export Plug-In . SVG Version: 6.00 Build 0)  -->
<svg version="1.1" id="Layer_1" xmlns="http://www.w3.org/2000/svg" xmlns:xlink="http://www.w3.org/1999/xlink" x="0px" y="0px"
	 viewBox="0 0 111.3 41" style="enable-background:new 0 0 111.3 41;" xml:space="preserve">
<style type="text/css">
	.st0{fill:#FFFFFF;}
</style>
<g>
	<path class="st0" d="M0.4,40.5V17.9c0-2.4,0.4-4.3,1.2-5.5c0.8-1.2,1.8-2.1,3.1-2.7c0.6-0.2,1.2-0.4,1.8-0.6C7.2,9,8,8.9,8.8,8.9
		c0.8,0,1.5,0.1,2.2,0.2c0.7,0.1,1.3,0.3,1.9,0.6c0.6,0.3,1.1,0.6,1.6,1c0.5,0.4,0.9,1,1.3,1.6c0.4,0.7,0.7,1.4,0.9,2.3
		c0.2,0.9,0.3,2,0.3,3.2v5.8c0,2.6-0.7,4.6-2.1,6c-1.4,1.4-3.4,2.1-6.2,2.1c-1,0-1.9-0.1-2.9-0.4c-1-0.3-1.9-0.8-2.9-1.5
		c0,1.8,0,3.6,0,5.5c0,1.9,0,3.7,0,5.5L0.4,40.5z M14.3,17.4c0-1.1-0.2-2-0.5-2.8c-0.3-0.8-0.7-1.4-1.2-1.9c-0.5-0.5-1.1-0.8-1.7-1
		c-0.7-0.2-1.3-0.3-2-0.3c-0.7,0-1.4,0.1-2,0.3c-0.7,0.2-1.2,0.5-1.8,1c-0.5,0.5-1,1.1-1.3,1.9c-0.3,0.8-0.5,1.7-0.5,2.8V24
		c0,1.8,0.5,3.2,1.6,4c1.1,0.8,2.4,1.2,4,1.2c1.6,0,2.9-0.4,3.9-1.2c1-0.8,1.5-2.2,1.5-4V17.4z"/>
	<path class="st0" d="M65.9,0.5v22.6c0,2.4-0.4,4.3-1.2,5.5c-0.8,1.2-1.8,2.1-3.1,2.7c-0.6,0.2-1.2,0.4-1.8,0.6
		c-0.7,0.1-1.4,0.2-2.3,0.2c-0.8,0-1.5-0.1-2.2-0.2c-0.7-0.1-1.3-0.3-1.9-0.6c-0.6-0.3-1.1-0.6-1.7-1c-0.5-0.4-0.9-1-1.3-1.6
		c-0.4-0.7-0.7-1.4-0.9-2.3c-0.2-0.9-0.3-2-0.3-3.2v-5.8c0-2.6,0.7-4.6,2.1-6c1.4-1.4,3.4-2.1,6.2-2.1c0.9,0,1.9,0.1,2.9,0.4
		c1,0.3,1.9,0.8,2.9,1.5c0-1.8,0-3.6,0-5.5c0-1.9,0-3.7,0-5.5L65.9,0.5z M52,23.6c0,1.1,0.2,2,0.5,2.8c0.3,0.8,0.7,1.4,1.2,1.9
		c0.5,0.5,1.1,0.8,1.7,1c0.7,0.2,1.3,0.3,2,0.3c0.7,0,1.4-0.1,2-0.3c0.7-0.2,1.2-0.5,1.8-1c0.5-0.5,1-1.1,1.3-1.9
		c0.3-0.8,0.5-1.7,0.5-2.8V17c0-1.8-0.5-3.2-1.6-4c-1.1-0.8-2.4-1.2-4-1.2c-1.6,0-2.9,0.4-3.9,1.2c-1,0.8-1.5,2.2-1.5,4V23.6z"/>
	<path class="st0" d="M47.1,23.5c0,2.7-0.6,4.8-1.9,6.2c-1.3,1.4-3.4,2.2-6.4,2.2c-2.9,0-5-0.8-6.4-2.3c-1.4-1.5-2.1-3.5-2.1-6.1
		v-5.6c0-2.4,0.4-4.3,1.2-5.5c0.8-1.2,1.9-2.1,3.1-2.7c0.6-0.2,1.2-0.4,1.8-0.6c0.6-0.1,1.4-0.2,2.3-0.2c0.8,0,1.5,0.1,2.2,0.2
		c0.7,0.1,1.3,0.3,1.9,0.6c0.6,0.3,1.2,0.6,1.7,1c0.5,0.4,1,1,1.3,1.6c0.4,0.7,0.7,1.4,0.9,2.3c0.2,0.9,0.3,2,0.3,3.2V23.5z
		 M44.3,17.4c0-1.1-0.2-2-0.5-2.8c-0.3-0.8-0.7-1.4-1.2-1.9c-0.5-0.5-1.1-0.8-1.8-1c-0.7-0.2-1.3-0.3-2-0.3c-0.7,0-1.4,0.1-2,0.3
		c-0.6,0.2-1.2,0.5-1.8,1c-0.5,0.5-1,1.1-1.3,1.9c-0.3,0.8-0.5,1.7-0.5,2.8v6.5c0,1.9,0.5,3.3,1.6,4.1c1.1,0.8,2.4,1.2,4,1.2
		c0.8,0,1.5-0.1,2.2-0.3c0.7-0.2,1.2-0.5,1.7-0.9c0.5-0.4,0.9-0.9,1.1-1.6c0.3-0.7,0.4-1.5,0.4-2.6V17.4z"/>
	<path class="st0" d="M84.8,23.5c0,2.7-0.6,4.8-1.9,6.2c-1.3,1.4-3.4,2.2-6.4,2.2c-2.9,0-5-0.8-6.4-2.3c-1.4-1.5-2.1-3.5-2.1-6.1
		v-5.6c0-2.4,0.4-4.3,1.2-5.5c0.8-1.2,1.9-2.1,3.1-2.7c0.6-0.2,1.2-0.4,1.8-0.6c0.6-0.1,1.4-0.2,2.3-0.2c0.8,0,1.5,0.1,2.2,0.2
		c0.7,0.1,1.3,0.3,1.9,0.6c0.6,0.3,1.2,0.6,1.7,1c0.5,0.4,1,1,1.3,1.6c0.4,0.7,0.7,1.4,0.9,2.3c0.2,0.9,0.3,2,0.3,3.2V23.5z
		 M82,17.4c0-1.1-0.2-2-0.5-2.8c-0.3-0.8-0.7-1.4-1.3-1.9c-0.5-0.5-1.1-0.8-1.8-1c-0.7-0.2-1.3-0.3-2-0.3c-0.7,0-1.4,0.1-2,0.3
		c-0.7,0.2-1.2,0.5-1.8,1c-0.5,0.5-1,1.1-1.3,1.9c-0.3,0.8-0.5,1.7-0.5,2.8v6.5c0,1.9,0.5,3.3,1.6,4.1c1.1,0.8,2.4,1.2,4,1.2
		c0.8,0,1.5-0.1,2.2-0.3c0.7-0.2,1.2-0.5,1.7-0.9c0.5-0.4,0.9-0.9,1.1-1.6c0.3-0.7,0.4-1.5,0.4-2.6V17.4z"/>
	<path class="st0" d="M90,11.9v13.6c0,2.1,1,3.5,3,4.4c-0.1,0.4-0.2,0.8-0.4,1.1c-0.1,0.3-0.3,0.7-0.4,1.1c-1.6-0.3-2.8-1.1-3.8-2.2
		c-0.9-1.1-1.4-2.7-1.3-4.7V14.8c0-1.6,0-3.4,0-5.2c0-1.9,0-3.7,0.1-5.6c0-0.7,0-1.4,0-2.1c0-0.7,0-1.3,0-1.9H90v9.1h5.5v2.8H90z"/>
	<path class="st0" d="M100.7,11.9v13.6c0,2.1,1,3.5,3,4.4c-0.1,0.4-0.2,0.8-0.4,1.1c-0.1,0.3-0.3,0.7-0.4,1.1
		c-1.6-0.3-2.8-1.1-3.8-2.2c-0.9-1.1-1.4-2.7-1.3-4.7V14.8c0-1.6,0-3.4,0-5.2c0-1.9,0-3.7,0.1-5.6c0-0.7,0-1.4,0-2.1
		c0-0.7,0-1.3,0-1.9h2.7v9.1h5.5v2.8H100.7z"/>
	<rect x="108.5" y="9.1" class="st0" width="2.8" height="22.3"/>
	<path class="st0" d="M28.9,9c-0.5-0.1-1-0.1-1.6-0.1c-0.9,0-1.8,0.2-2.9,0.5c-0.3,0.1-0.5,0.2-0.8,0.3c0,0-0.1,0-0.1,0
		c-0.1,0-0.1,0.1-0.2,0.1c-0.4,0.2-0.9,0.4-1.3,0.7c0,0,0,0,0,0c-0.1,0-0.1,0.1-0.2,0.1c-0.1,0.1-0.2,0.1-0.2,0.2
		c-0.9,0.6-1.8,1.4-2.6,2.5v18.2h2.9V15.3c0-0.5,0.2-1,0.5-1.5c0.3-0.5,0.8-0.9,1.3-1.2c0.5-0.4,1.1-0.6,1.8-0.8
		c0.7-0.2,1.3-0.3,2-0.3c0.2,0,0.5,0,0.9,0.1c0.4,0,0.8,0.1,1.2,0.3l0.7-2.5C29.9,9.2,29.4,9.1,28.9,9"/>
</g>
</svg>
